PathFileType	4	(X/Y/Z)	c:/Users/goper/Files/vsCode/490R/osim_files/C07/C07_Fast_06.trc
DataRate	CameraRate	NumFrames	NumMarkers	Units                	OrigDataRate	OrigDataStartFrame	OrigNumFrames
250.00	250.00	9	36	mm	250.0	1555	3108
                Frame#	Time	LPSIS			LASIS			LTH1			LTH2			LTH3			LTH4			LLFE			LMFE			LSH1			LSH2			LSH3			LSH4			LLMAL			LMMAL			LCAL			LMTP5			LTOE			LMTP1			RPSIS			RASIS			RTH1			RTH2			RTH3			RTH4			RLFE			RMFE			RSH1			RSH2			RSH3			RSH4			RLMAL			RMMAL			RCAL			RMTP1			RTOE			RMTP5		
		X1	Y1	Z1	X2	Y2	Z2	X3	Y3	Z3	X4	Y4	Z4	X5	Y5	Z5	X6	Y6	Z6	X7	Y7	Z7	X8	Y8	Z8	X9	Y9	Z9	X10	Y10	Z10	X11	Y11	Z11	X12	Y12	Z12	X13	Y13	Z13	X14	Y14	Z14	X15	Y15	Z15	X16	Y16	Z16	X17	Y17	Z17	X18	Y18	Z18	X19	Y19	Z19	X20	Y20	Z20	X21	Y21	Z21	X22	Y22	Z22	X23	Y23	Z23	X24	Y24	Z24	X25	Y25	Z25	X26	Y26	Z26	X27	Y27	Z27	X28	Y28	Z28	X29	Y29	Z29	X30	Y30	Z30	X31	Y31	Z31	X32	Y32	Z32	X33	Y33	Z33	X34	Y34	Z34	X35	Y35	Z35	X36	Y36	Z36

1555	6.21600	-0.84176	1005.45929	308.97226	-161.03360	991.46307	397.40054	-164.56879	793.10431	448.29984	-206.38660	726.01038	452.57187	-248.51375	663.47101	446.42584	-273.66949	769.15582	436.56207	-278.49237	550.27850	426.13132	-293.20526	539.92407	308.85748	-177.36014	414.09064	437.09888	-139.43518	384.80923	420.99432	-213.39296	395.97763	426.06473	-186.30789	359.34155	418.87604	-37.13865	239.83942	377.28589	-78.20536	239.66092	309.36493	39.90786	228.96468	322.50598	-80.14999	96.07444	403.45337	-136.26712	71.64970	352.82407	-108.67700	81.96928	299.14020	-13.14979	1016.72290	207.67836	-181.22961	987.68414	142.75516	-147.82759	829.49707	88.82834	-152.01981	750.45001	95.85516	-152.67311	669.66412	108.39754	-218.78716	756.93042	133.58792	-137.43904	493.78842	148.34607	-122.41695	507.91351	258.86728	-51.61427	321.75922	134.23212	-72.66326	268.80148	137.43102	-111.72012	313.63571	144.93138	-100.85207	272.12918	147.39177	-9.72956	107.18076	184.67474	-33.57172	112.09058	266.06940	48.07335	55.27070	233.57043	-161.83704	39.96967	257.17657	-186.28181	52.27206	206.02353	-135.40074	41.67233	148.97827
1556	6.22000	-5.36708	1006.13837	309.15112	-165.77385	992.20178	397.11221	-170.36769	794.17908	448.36407	-212.05879	727.45435	452.65167	-254.81441	664.87579	446.41660	-279.48032	770.81427	436.19095	-285.03766	551.70221	425.89828	-299.63443	541.23004	308.86279	-186.22191	412.84601	437.10745	-149.06363	382.78378	420.90881	-222.69885	395.64322	425.94437	-196.47360	358.42358	418.76093	-49.66093	235.80658	377.00058	-91.14561	236.31081	309.27914	27.01616	222.60004	321.59222	-96.28287	93.76461	404.41577	-153.59233	70.52198	354.39685	-126.01892	79.55159	300.45721	-17.54533	1017.26599	207.81126	-185.62506	987.70068	142.68939	-150.86882	829.72424	88.74609	-154.28545	750.77216	95.70969	-154.23425	669.83673	108.26815	-221.48918	756.67627	133.12706	-137.82553	494.11002	148.09203	-122.97498	508.06213	258.88507	-51.66341	322.23105	134.34355	-72.67129	269.20905	137.41972	-111.75273	314.01767	144.67747	-100.88063	272.48380	147.18178	-9.92889	107.57912	184.82159	-33.72413	112.45813	266.16486	47.99963	55.76448	233.56017	-161.87538	39.94548	257.18073	-186.49243	52.13981	206.11369	-135.41907	41.68121	148.98694
1557	6.22400	-10.04352	1006.75513	309.37445	-170.48627	992.82361	396.81082	-175.94835	795.20660	448.40613	-217.96906	729.49207	453.33096	-261.06384	666.43732	446.29883	-285.25861	772.26569	435.58810	-291.59106	552.98682	425.64447	-305.88916	542.40686	308.82224	-195.00940	411.62823	437.23065	-158.57382	380.47076	420.83121	-232.09402	395.15054	425.83057	-206.85623	356.89758	418.73782	-62.24213	231.70757	376.62659	-104.15685	232.77991	309.20804	13.74558	215.99533	320.89352	-112.38372	92.33538	405.85745	-170.96530	69.22417	355.83130	-143.62540	77.20512	301.61606	-21.88289	1017.73517	207.97369	-189.64136	987.78381	142.34229	-153.64880	830.04895	88.55832	-156.48309	751.03668	95.59679	-155.91014	670.15588	108.28082	-224.04808	756.35986	132.64268	-138.11957	494.44089	147.85075	-124.34193	508.63348	258.40253	-51.66408	322.68033	134.42119	-72.65303	269.58994	137.38264	-111.77219	314.40848	144.45016	-100.85178	272.84979	147.02100	-10.05902	107.93461	184.91040	-33.92454	112.82470	266.26126	47.89488	56.33570	233.57140	-161.82291	39.89016	257.22733	-186.25691	51.88554	206.15802	-135.43919	41.68645	149.01793
1558	6.22800	-14.54427	1007.35791	309.62872	-175.40428	993.32281	396.47507	-181.17403	796.11969	448.42941	-223.93365	730.30634	452.96979	-267.27158	667.76202	446.26871	-290.81097	773.82483	435.34506	-297.95578	554.16632	425.52618	-312.10239	543.55774	308.75275	-203.85603	410.16116	437.33301	-168.04791	378.21381	420.66705	-241.20448	394.57617	425.78653	-216.95718	355.95615	418.45813	-75.04459	227.45889	376.40198	-117.19030	229.21930	309.14764	0.35147	209.26086	320.39282	-128.86909	89.78976	406.77908	-188.12881	68.28234	357.31891	-160.87852	74.84838	302.91409	-26.26651	1018.19434	208.15767	-193.79755	987.85693	142.05360	-156.77396	830.30457	88.44430	-158.73209	751.33661	95.52259	-157.34869	670.40442	108.31790	-227.00258	756.06732	132.29369	-138.55281	494.85947	147.58533	-125.47111	508.98428	258.12906	-51.72245	323.15619	134.50612	-72.66946	270.08932	137.32222	-111.97421	314.62027	144.23468	-100.79453	273.26099	146.82352	-10.16299	108.25381	185.18689	-34.18406	113.15587	266.41562	47.77367	56.80642	233.59642	-161.86812	39.87435	257.25409	-186.22391	51.78229	206.20070	-135.43475	41.73426	149.04451
1559	6.23200	-19.13311	1007.79822	309.90598	-180.14392	993.86664	396.20007	-186.60005	796.99023	448.57587	-229.76157	731.00348	452.78488	-273.26950	668.96173	446.21466	-296.45743	775.10529	434.91513	-304.30841	555.27332	425.34338	-318.21802	544.54510	308.67703	-212.48987	408.64758	437.56085	-177.62949	375.58337	420.62009	-250.47325	393.98404	425.70065	-226.58929	355.78510	417.93817	-88.32660	222.62505	376.07544	-128.71469	225.45256	310.60150	-13.31839	202.47627	319.90509	-145.47849	87.56572	407.86008	-205.35869	67.07257	358.85999	-178.61588	72.43626	304.25626	-30.69716	1018.54120	208.35536	-197.90924	987.83105	141.77058	-159.49646	830.65137	88.13960	-160.94566	751.55377	95.42666	-159.09544	670.79529	108.45387	-229.08052	755.90936	131.85883	-138.92297	495.23572	147.36720	-126.82122	509.23572	257.93271	-51.74436	323.63467	134.52841	-72.61195	270.49710	137.20477	-111.99656	315.05331	144.01830	-100.77583	273.71246	146.63916	-10.31991	108.94312	185.36436	-34.32860	113.49228	266.50351	47.58944	57.22730	233.66946	-161.20029	39.27928	257.65457	-186.22855	51.74707	206.23236	-135.43344	41.74083	149.05235
1560	6.23600	-23.83663	1008.20844	310.26743	-184.86678	994.26166	396.10617	-192.00670	797.74689	448.64185	-235.39833	732.62103	453.71085	-279.12943	670.10895	446.07614	-301.76505	776.23785	434.80722	-310.37439	556.13812	425.23526	-324.13937	545.33923	308.54453	-220.95869	406.65622	437.37610	-187.28403	372.92950	420.59137	-259.53134	393.16656	425.64636	-236.76343	353.60138	418.24112	-101.43738	218.20364	375.91809	-143.42949	221.84969	309.47955	-27.09422	195.64026	319.57819	-163.28371	91.92387	416.66360	-222.75797	66.03525	360.28860	-195.95969	70.19372	305.48019	-35.20109	1018.78925	208.65567	-202.23827	987.76074	141.69469	-162.54689	830.92285	88.07423	-163.24614	751.83636	95.31130	-160.69696	671.05988	108.33902	-231.61234	755.73175	131.49335	-139.27342	495.60248	147.12909	-127.64320	509.40491	257.84500	-51.73359	324.11621	134.51149	-72.56561	270.92447	137.12166	-112.05782	315.39859	143.80032	-100.81635	274.17816	146.48697	-10.43677	109.49725	185.56232	-34.59793	113.84078	266.65515	47.43012	57.65937	233.83797	-161.27603	39.30330	257.65424	-186.29034	51.79365	206.26271	-135.42885	41.74487	149.07268
1561	6.24000	-28.36469	1008.51422	310.49435	-189.59293	994.56702	395.92490	-197.34180	798.45929	448.75534	-240.93176	733.13385	453.21127	-284.74091	670.98053	446.09271	-307.13892	777.21252	434.36734	-316.25800	556.91986	425.09479	-329.96268	546.08942	308.36389	-229.37642	404.56378	437.25037	-196.64505	370.24280	420.35809	-268.37329	392.33868	425.61768	-246.50935	353.13272	418.16293	-114.44674	213.72108	375.74484	-156.83905	218.17036	309.49695	-41.16589	188.69243	319.35947	-178.88197	82.69156	410.05972	-240.13376	65.04562	361.68750	-213.38727	67.94523	306.77045	-39.61497	1018.98956	208.95322	-206.55504	987.59924	141.54762	-165.40067	831.14886	87.82021	-165.96570	752.07947	94.67618	-163.30994	671.18646	107.34921	-234.32114	755.39508	131.12514	-139.65358	495.97849	146.91789	-128.81778	509.60980	257.60382	-51.73771	324.61575	134.51595	-72.47108	271.45850	136.94778	-112.17981	315.78391	143.60802	-100.83982	274.60059	146.34976	-10.51877	109.84478	185.63214	-34.93612	114.43359	266.70593	47.19310	58.09351	234.05319	-161.38248	39.32710	257.67474	-186.27026	51.83889	206.26622	-135.42844	41.74306	149.10825
1562	6.24400	-32.83016	1008.81812	310.71219	-194.23532	994.84814	395.71808	-202.40587	799.00494	448.77612	-246.26799	733.50616	452.87216	-290.41119	671.90771	445.93713	-312.20721	778.12939	434.42609	-321.96381	557.45569	425.03476	-335.81079	546.64325	308.24362	-237.63121	402.42441	436.99051	-206.07623	367.45239	420.22357	-277.16418	391.26471	425.60443	-256.63486	350.83047	418.09305	-127.89347	209.06470	375.78604	-169.98386	214.38562	309.63373	-55.26080	181.78764	319.09866	-195.70172	79.48608	410.57492	-257.52371	64.04975	363.13306	-230.77757	65.96690	308.07669	-44.05130	1019.12518	209.22881	-210.38354	987.64288	141.05786	-168.45050	831.38898	87.64333	-168.22769	752.32983	94.40710	-164.78511	671.42419	107.00913	-236.30490	754.72656	131.10617	-140.10902	496.30746	146.65538	-129.83443	509.75476	257.40552	-51.78911	325.13684	134.55867	-72.42780	271.94809	136.86089	-112.00014	316.46088	143.31464	-100.87220	275.08691	146.13756	-10.62859	110.18091	185.75107	-35.18460	114.79041	266.87433	46.97528	58.44588	234.23734	-161.39993	39.34277	257.67014	-186.31522	51.89308	206.28966	-135.45792	41.74385	149.13535
1563	6.24800	-37.47541	1008.97467	311.02118	-198.95641	995.00958	395.57590	-207.55602	799.57141	448.86819	-251.54745	734.62372	453.73969	-295.79968	672.57562	445.83051	-317.29340	778.85114	434.20291	-327.50626	558.07635	424.86557	-341.31467	547.12244	308.15906	-245.90157	400.17096	436.79559	-215.50812	364.65939	420.06317	-285.91940	390.23535	425.64871	-266.38620	349.27426	418.09204	-141.36670	204.30267	375.79187	-183.96426	210.74730	309.72720	-69.55038	174.81090	318.94009	-212.49629	77.22961	411.62585	-274.92108	63.23032	364.42148	-248.27422	63.84502	309.30859	-48.46931	1019.23535	209.49109	-214.66322	987.54761	140.94991	-171.27965	831.60394	87.50887	-170.58650	752.50269	94.18418	-166.72250	671.63397	106.73194	-238.81509	754.47522	130.72900	-140.53296	496.62115	146.43640	-130.88116	510.04703	257.16345	-51.86415	325.69510	134.53070	-72.38900	272.42203	136.78186	-112.09792	316.91687	143.04802	-100.90833	275.53885	145.93021	-10.83785	110.69655	185.96980	-35.45375	115.17905	267.06494	46.87955	58.95037	234.32838	-161.50578	39.36500	257.67795	-186.28712	51.89363	206.29469	-135.44177	41.73952	149.15448
